<svg xmlns="http://www.w3.org/2000/svg" viewBox="0 0 85.04 15.11"><defs><style>.cls-1{fill:#fff;}</style></defs><title>Asset 2</title><g id="Layer_2" data-name="Layer 2"><g id="Layer_1-2" data-name="Layer 1"><path class="cls-1" d="M16.93,0a7.55,7.55,0,1,0,7.55,7.55A7.55,7.55,0,0,0,16.93,0m0,11.59a4,4,0,1,1,4-4,4,4,0,0,1-4,4"/><path class="cls-1" d="M77.49,0A7.55,7.55,0,1,0,85,7.55,7.55,7.55,0,0,0,77.49,0m0,11.59a4,4,0,1,1,4-4,4,4,0,0,1-4,4"/><polygon class="cls-1" points="9.06 3.79 10.52 0.6 10.37 0.31 0 0.31 0 3.79 0 14.8 3.62 14.8 3.62 9.62 8.07 9.62 8.07 6.43 3.62 6.43 3.62 3.79 9.06 3.79"/><polygon class="cls-1" points="46.83 0.31 34.86 0.31 34.73 0.6 36.25 3.79 39.29 3.79 39.29 14.8 42.91 14.8 42.91 3.79 46.83 3.79 46.83 0.31"/><path class="cls-1" d="M50.57.31,44.36,14.5l.14.3h3.43l1-2.53h6.11l1,2.53h3.43l.14-.31L53.43.31Zm-.49,9.11L52,4.56l1.93,4.85Z"/><path class="cls-1" d="M34.84,4.93A4.62,4.62,0,0,0,30.22.31h-6.8L23.29.6l1.55,3.19h5.36a1.29,1.29,0,0,1,0,2.57h-4.4V9.55h2.47L30.7,14.8h3.58l.13-.28L31.76,9.28a4.62,4.62,0,0,0,3.08-4.35"/><path class="cls-1" d="M68.28,11h0a4,4,0,1,1,0-7h0l.66.38L70.48,1.3a7.55,7.55,0,1,0,0,12.49L69,10.64Z"/></g></g></svg>